PathFileType	4	(X/Y/Z)	C:/Users/beibeiliu/ov580/test_trc/User3\sequence.14_training_dense_right.trc
DataRate	CameraRate	NumFrames	NumMarkers	Units	OrigDataRate	OrigDataStartFrame	OrigNumFrames
120	120	25	19	mm	120	57	84
Frame#	Time	ThumbCMC			ThumbMCP			ThumbIP			ThumbTip			IndexMCP			IndexPIP			IndexTip			MiddleMCP			MiddlePIP			MiddleTip			RingMCP			RingPIP			RingTip			PinkyMCP			PinkyPIP			PinkyTip			BackHand1			BackHand2			BackHand3	
		X0	Y0	Z0	X1	Y1	Z1	X2	Y2	Z2	X3	Y3	Z3	X4	Y4	Z4	X5	Y5	Z5	X6	Y6	Z6	X7	Y7	Z7	X8	Y8	Z8	X9	Y9	Z9	X10	Y10	Z10	X11	Y11	Z11	X12	Y12	Z12	X13	Y13	Z13	X14	Y14	Z14	X15	Y15	Z15	X16	Y16	Z16	X17	Y17	Z17	X18	Y18	Z18	
56	0.466667	134.532	35.7409	29.0561	121.239	19.2617	-1.89178	125.846	6.1783	-28.1893	143.686	-7.82859	-41.4806	154.937	64.729	-39.4104	147.646	69.8567	-60.8944	145.052	73.6539	-87.7578	167.736	39.4691	-46.695	151.806	14.2713	-58.4275	141.185	1.8674	-21.758	179.426	24.1914	-38.6032	163.98	-3.72834	-45.4681	153.795	-9.48054	-14.7751	202.163	22.7735	-24.1862	211.449	18.7847	-44.263	217.234	17.6714	-66.9093	196.142	40.6395	15.2476	195.801	37.5142	44.4753	167.794	56.9588	27.8523	
57	0.475	145.448	49.0544	29.643	129.812	39.7499	-5.48382	128.097	24.9423	-34.0744	140.175	7.32378	-41.5197	179.153	69.2579	-35.8627	179.957	73.7959	-61.9618	179.583	75.8556	-88.2207	183.4	38.1207	-45.6395	155.628	22.3519	-58.4389	143.074	13.2984	-24.1924	189.694	19.1192	-37.3226	164.578	3.71645	-48.1448	147.003	4.10158	-17.8944	209.563	8.88818	-23.6317	211.037	8.69502	-42.4801	218.204	5.22561	-68.1051	204.657	33.3527	17.8151	203.671	26.7968	43.9951	185.979	55.3927	29.6433	
58	0.483333	170.446	57.9983	24.9229	151.336	56.597	-5.95545	144.738	44.6588	-34.0485	150.481	17.8998	-44.2776	212.921	55.538	-35.4383	217.352	63.2893	-62.4141	220.789	63.7285	-85.1758	203.433	29.2313	-42.7539	171.176	23.3667	-57.9718	152.452	28.4637	-22.4243	199.923	13.4438	-36.5671	170.398	5.11105	-46.465	153.786	13.1046	-21.0802	210.21	-8.60438	-19.0326	213.767	-12.8566	-39.649	220.142	-18.8449	-60.9428	213.727	13.0901	21.5939	207.804	12.2147	51.8447	207.536	46.0328	32.939	
59	0.491667	197.686	56.9927	25.9898	185.162	63.6645	-10.1583	181.385	46.032	-36.4654	176.196	25.6795	-47.0968	248.666	42.6335	-26.4506	257.639	42.4485	-50.3574	266.79	39.7361	-73.9494	228.293	17.9026	-39.8643	200.602	24.7591	-56.5278	178.033	33.406	-27.5699	219.147	0.480426	-32.3755	191.668	6.07209	-47.2518	173.397	17.7365	-22.6264	218.656	-20.006	-10.816	224.062	-27.2753	-30.764	230.767	-31.1891	-51.1973	225.795	1.49088	24.1583	212.931	3.18371	56.5783	227.513	32.9314	40.2741	
60	0.5	215.422	58.3371	30.3733	211.92	57.0737	-6.05204	210.598	48.6164	-36.3663	206.476	24.6264	-51.1195	277.957	32.1265	-12.4914	292.811	36.7148	-35.9351	305.407	36.534	-57.2294	256.762	14.1779	-25.7435	235.338	25.5312	-50.3391	203.117	32.2162	-21.9585	241.777	-3.52884	-27.1525	219.787	5.67354	-42.8734	196.851	20.0259	-22.344	236.399	-24.85	-3.18963	249.966	-28.2242	-23.7996	256.081	-39.9642	-40.1114	238.45	-5.23361	34.7811	221.035	-1.038	60.8209	243.177	27.6321	46.6415	
61	0.508333	219.789	56.947	29.3653	214.813	60.3031	-6.68575	219.647	48.539	-37.3686	221.711	23.85	-45.9352	283.567	44.6878	-1.33435	302.337	45.7285	-25.6484	314.06	51.7733	-44.7013	268.404	17.9949	-18.681	247.965	29.3096	-46.2379	216.838	35.1565	-23.0198	258.612	5.1479	-18.8497	239.451	8.93114	-40.7089	210.02	18.5223	-24.7344	257.899	-17.1058	1.42213	267.088	-25.082	-13.3787	284.274	-31.1261	-34.8858	248.875	0.277744	37.9453	229.406	1.51765	62.7245	246.709	36.6229	51.8416	
62	0.516667	209.531	59.2697	27.4284	204.946	56.0099	-8.99363	211.668	42.0344	-40.0685	215.894	19.1272	-48.7289	273.616	50.9199	-8.40814	287.557	54.6936	-30.6408	300.791	61.8497	-54.7546	264.451	25.3686	-27.3287	240.817	29.4173	-48.6561	209.076	28.6587	-21.6915	255.725	6.3234	-18.8396	231.991	10.9504	-42.1493	204.264	16.5861	-20.6294	257.181	-14.8481	2.69135	271.65	-18.5199	-15.8773	285.091	-23.2674	-35.4801	247.842	9.12001	39.3329	229.934	5.67107	64.6868	240.964	41.3154	46.5874	
63	0.525	192.549	56.5768	19.3768	183.308	47.62	-14.1333	184.076	31.6242	-41.7845	191.868	3.25758	-48.5755	249.66	47.386	-26.9324	258.295	54.576	-54.414	265.265	48.3783	-78.5887	240.657	19.5422	-35.0128	216.424	16.1928	-54.7762	187.295	17.4446	-21.7094	236.554	1.05588	-24.9093	211.193	-3.81686	-42.2713	187.842	4.29793	-20.81	243.602	-15.8804	-2.59511	252.712	-19.9802	-20.1404	264.934	-31.0694	-39.2666	241.63	12.4882	29.9235	224.61	13.2811	60.017	228.004	47.1291	35.4194	
64	0.533333	174.225	52.6922	21.0622	157.329	39.2052	-15.3193	150.397	19.8276	-35.3884	160.092	-9.07775	-39.5714	217.23	40.268	-41.9926	218.004	36.7374	-73.4845	218.854	28.3001	-95.757	208.925	10.6979	-44.8155	180.195	-1.06404	-54.3385	159.682	10.2494	-22.0884	207.677	-8.68696	-30.7987	175.316	-17.5819	-37.4699	160.986	-3.80344	-15.4093	221.052	-21.4593	-9.82097	226.171	-33.3731	-28.0979	231.847	-47.3632	-44.1241	225.912	8.91035	19.3237	219.026	15.3369	51.628	213.62	43.8527	25.7139	
65	0.541667	164.051	52.8203	18.6644	140.257	36.8393	-4.71045	126.602	17.0987	-23.8471	129.045	-10.0476	-25.6409	189.749	28.124	-47.9957	183.23	18.1692	-75.8879	177.29	12.8524	-96.5209	178.062	-4.33006	-46.5805	147.668	-8.08163	-48.0343	135.682	7.90705	-14.7665	176.408	-15.0019	-32.1498	146.211	-19.006	-30.738	137.509	-1.29698	-3.39514	194.831	-29.7123	-13.5091	192.347	-45.817	-30.0951	191.077	-56.6026	-45.226	210.341	4.85644	14.938	210.314	15.5324	44.8766	205.902	38.161	15.0139	
66	0.55	160.822	56.1351	20.1664	130.72	44.4299	3.73449	110.55	23.5592	-14.722	110.251	-2.31837	-13.7257	169.505	23.1963	-50.3712	160.099	21.8826	-73.0402	146.826	13.3453	-97.6173	156.584	-0.783956	-41.3263	122.637	-1.77403	-39.0477	122.177	13.66	-0.541162	151.959	-16.8092	-28.547	121.835	-14.0868	-18.811	120.73	3.92849	5.79836	171.726	-31.501	-11.1306	163.987	-42.3911	-23.7624	155.945	-60.6276	-40.6296	197.993	-2.61361	8.95088	203.845	8.70259	38.8319	197.48	35.7245	13.7738	
67	0.558333	162.761	60.3014	22.1251	129.613	52.8867	6.36169	108.623	32.9573	-8.09564	99.0833	11.037	-9.23278	162.305	26.2948	-48.8409	149.257	26.6034	-72.9083	134.963	19.1891	-93.4029	141.637	7.5809	-41.828	112.147	8.53101	-34.7815	113.871	21.7391	2.03712	144.34	-11.2404	-24.5257	112.993	-5.73857	-20.0625	112.035	10.9209	8.91625	156.941	-30.0684	-8.8619	145.266	-38.3822	-28.5367	135.949	-51.6425	-40.0147	189.652	-1.48489	10.615	200.833	3.94018	40.2685	194.923	34.8911	9.75353	
68	0.566667	163.861	59.8674	24.3055	133.057	56.2804	8.22795	105.984	42.8783	-9.78981	97.8813	17.3694	-13.6552	164.415	30.2734	-46.3577	152.689	28.246	-70.8988	136.831	29.1855	-92.8465	142.654	7.98669	-43.8392	113.562	13.1416	-37.6507	113.278	24.8189	0.317762	143.368	-8.91403	-28.6626	113.761	-1.00144	-25.8865	109.931	15.7979	5.4504	155.562	-25.36	-14.1784	145.492	-30.8507	-28.5904	132.503	-42.5359	-49.6588	189.097	0.640668	9.46493	197.983	2.70651	36.3126	194.989	30.298	12.0179	
69	0.575	160.351	54.4425	24.3286	132.152	51.1692	6.8399	111.252	35.7927	-16.8134	104.591	14.7771	-22.557	168.511	39.6525	-49.9499	157.444	37.0352	-72.7656	142.372	33.7193	-92.974	157.313	15.8214	-48.1623	124.549	14.5869	-49.8303	115.856	14.3535	-10.6965	159.813	-3.6901	-34.9942	129.207	-3.5803	-39.8294	115.554	1.07296	-7.17819	170.291	-17.8864	-22.0384	163.071	-29.8618	-36.61	151.489	-36.8925	-56.3239	195.483	3.94322	7.05402	202.242	12.4672	39.0508	194.572	41.421	18.7231	
70	0.583333	147.321	47.745	31.7416	125.532	35.748	5.83804	109.574	24.6466	-20.1577	111.046	4.93607	-36.6357	165.541	46.8945	-46.6345	154.035	45.0325	-70.3794	136.679	35.7543	-92.7929	173.856	27.5276	-49.6255	146.74	18.7984	-66.0991	125.041	-1.11282	-39.8631	179.838	12.967	-39.4622	158.257	-0.341768	-57.5681	132.484	-10.2781	-36.9741	193.506	-1.67456	-25.5597	191.668	-11.4009	-48.0575	184.988	-16.7106	-66.0422	200.546	20.7051	8.14039	203.174	23.6741	37.6432	187.096	51.6876	22.5534	
71	0.591667	135.753	38.2253	33.0177	115.191	26.9693	9.20478	109.785	13.8948	-20.1318	108.368	-0.0135843	-42.0044	150.843	50.4118	-41.2984	142.206	40.0618	-68.0894	128.479	29.8124	-85.4732	170.382	43.5243	-49.271	158.895	31.2243	-73.6284	135.804	-3.696	-74.6339	186.717	29.4207	-39.4424	181.784	15.3711	-64.01	157.127	-10.2545	-69.0036	202.037	11.4401	-21.9677	205.155	8.6246	-44.4129	204.268	-1.98666	-65.1631	197.986	36.3431	14.0704	197.252	35.5072	45.6666	169.496	53.4084	30.6594	
72	0.6	131.371	32.5135	37.2871	112.378	21.434	8.41176	103.338	11.2328	-18.0113	100.727	-0.780959	-38.7245	145.317	47.775	-38.3395	134.844	38.1746	-68.5156	126.654	23.2315	-88.0143	168.788	46.6386	-46.6045	164.999	37.7866	-75.693	152.054	15.1844	-97.2912	186.094	37.3344	-35.4693	183.888	30.8907	-66.2406	179.999	7.98278	-86.9199	202.705	20.3954	-20.6723	209.692	15.1553	-46.5911	217.48	5.50606	-67.6562	192.312	43.0388	14.8412	194.697	41.4141	41.1366	159.551	54.5589	26.5725	
73	0.608333	129.472	30.5018	33.2342	106.682	19.4249	13.2289	97.7204	8.71564	-12.5775	90.6657	-0.499557	-32.217	141.134	45.4941	-40.2888	129.366	39.4077	-65.9328	125.282	29.875	-88.0304	167.409	45.6944	-46.3923	166.237	40.406	-71.9136	160.919	27.527	-103.03	185.413	37.4365	-35.028	191.387	34.5299	-64.6218	190.208	22.7668	-90.4459	206.09	20.7675	-20.559	216.837	15.637	-42.1921	224.967	10.903	-65.3808	187.607	43.3391	12.0328	190.317	43.2571	43.8967	156.704	51.7937	28.8044	
74	0.616667	129.663	27.5155	34.3139	109.544	17.5772	11.2097	94.9633	8.57349	-9.52668	85.6909	-0.870231	-29.485	141.7	41.874	-40.4991	132.34	39.3197	-67.9445	131.041	33.2543	-90.1083	168.531	41.2258	-47.4102	170.154	37.3368	-74.6952	168.367	31.2318	-102.772	188.314	33.6309	-34.7156	193.791	31.006	-65.7022	195.757	26.3894	-86.8059	207.589	18.5536	-19.8066	218.511	14.3739	-42.9553	225.533	10.4395	-63.6848	191.123	40.7316	10.5616	190.517	42.0765	43.9611	157.686	50.3664	23.4415	
75	0.625	128.714	26.0271	33.2495	108.144	16.2121	14.785	92.0985	7.32372	-6.98672	78.8208	-0.607737	-28.2229	142.308	39.0286	-42.6868	134.584	37.4657	-67.2729	128.531	35.8357	-90.5714	167.784	38.9094	-44.134	168.226	36.2534	-75.2895	169.195	29.5127	-107.376	190.707	30.4473	-39.2404	192.443	30.0226	-59.7861	197.759	24.1828	-87.1522	208.013	16.1319	-17.8847	218.556	12.4816	-36.4722	229.182	9.02201	-59.9497	191.674	38.4831	11.1407	190.642	39.5433	42.9887	156.393	49.5539	23.1165	
76	0.633333	129.182	25.0832	34.4735	108.252	14.9287	9.44146	93.9034	5.24185	-10.1091	79.2109	-2.99234	-26.7096	146.012	37.7184	-39.7235	133.117	36.5023	-65.5723	132.126	33.1624	-94.3655	168.964	37.522	-46.3187	170.925	34.0607	-74.8828	168.053	26.8906	-103.856	188.351	29.0302	-35.6886	194.763	28.1079	-63.7247	198.136	22.1689	-87.2812	206.76	15.5779	-18.6706	217.723	12.6318	-37.1219	226.81	9.80253	-61.4392	188.745	36.9501	15.6569	193.524	40.7566	40.2827	158.431	47.0628	27.8817	
77	0.641667	128.171	26.2304	33.0223	111.968	13.8636	12.0812	94.5364	6.23579	-10.1423	81.7599	-3.5757	-28.4105	140.633	39.0331	-44.1267	134.214	35.0264	-67.9332	132.803	31.803	-92.8748	170.78	36.2966	-47.9263	167.667	33.0495	-74.2126	170.881	23.6632	-104.979	192.962	28.4642	-40.6743	191.502	26.866	-62.0218	195.047	21.293	-86.844	210.933	14.0439	-18.4784	220.512	10.8272	-39.6517	229.445	5.99806	-62.7229	189.729	36.4761	11.6927	193.723	38.3844	39.5045	161.217	45.8891	24.4855	
78	0.65	127.261	26.7539	34.1642	109.029	14.9487	13.6172	91.3365	6.58469	-15.2989	85.3868	-3.65793	-33.5052	144.077	37.5735	-40.937	132.577	36.362	-67.574	131.793	31.8153	-92.822	170.312	36.6851	-44.6975	172.428	31.9407	-74.4125	169.475	22.8939	-104.402	191.91	27.5597	-39.1071	196.173	25.4856	-64.4154	196.382	17.6774	-89.201	210.456	14.9371	-22.1254	219.891	11.1781	-37.8201	226.145	8.81415	-60.5737	189.235	39.081	12.5864	189.281	41.9101	42.4921	159.643	46.7068	23.2906	
79	0.658333	125.893	26.5214	31.7791	106.946	16.573	10.9024	94.636	6.54228	-9.71799	85.9306	-2.17519	-32.1795	139.347	38.9592	-44.9469	135.283	35.8802	-70.8039	126.75	32.127	-92.4735	167.758	37.4046	-46.0304	169.054	32.3032	-73.996	166.666	21.1735	-108.674	187.365	28.2175	-36.0093	191.93	26.0838	-64.6687	194.743	16.1781	-91.2632	209.888	15.5672	-20.867	213.865	13.055	-40.2797	227.522	7.52809	-61.9049	187.703	39.3647	14.0554	187.378	41.9858	40.0794	156.246	46.7439	25.3574	
80	0.666667	124.921	27.2512	33.4169	105.484	15.9918	8.78316	91.5004	6.66111	-12.3262	79.3167	-2.5586	-30.3745	141.938	38.8125	-45.0437	131.851	35.6618	-69.062	126.723	31.1615	-92.618	168.602	35.0625	-47.5289	169.887	29.9981	-74.971	164.171	20.6445	-105.065	186.985	27.9085	-36.0696	189.225	24.3485	-61.8633	191.641	16.3464	-89.4081	204.818	15.6255	-20.5544	215.853	10.3417	-41.2826	225.349	4.30349	-63.4874	185.185	39.109	14.0315	186.916	39.8449	41.2671	154.973	46.287	25.8168	
